<?xml version="1.0" encoding="UTF-8" standalone="no"?>
<svg viewBox="0 0 50 50"
 xmlns="http://www.w3.org/2000/svg" xmlns:xlink="http://www.w3.org/1999/xlink" version="1.2" baseProfile="tiny">
<title>Qt SVG Document</title>
<desc>Generated with Qt</desc>
<defs>
</defs>
<g fill="none" stroke="black" stroke-width="1" fill-rule="evenodd" stroke-linecap="square" stroke-linejoin="bevel" >

<g fill="#000000" fill-opacity="1" stroke="none" transform="matrix(2.27273,0,0,2.27273,0,0)"
font-family="Noto Sans" font-size="10" font-weight="400" font-style="normal" 
opacity="0.00100002" >
<rect x="0" y="0" width="22" height="22"/>
</g>

<g fill="#00e5ad" fill-opacity="1" stroke="none" transform="matrix(2.27273,0,0,2.27273,0,0)"
font-family="Noto Sans" font-size="10" font-weight="400" font-style="normal" 
>
<path vector-effect="none" fill-rule="evenodd" d="M2,11 C2,6.02943 6.02943,2 11,2 L11,2 C15.9706,2 20,6.02943 20,11 L20,11 C20,15.9706 15.9706,20 11,20 L11,20 C6.02943,20 2,15.9706 2,11 L2,11"/>
</g>

<g fill="#020202" fill-opacity="1" stroke="none" transform="matrix(2.27273,0,0,2.27273,0,0)"
font-family="Noto Sans" font-size="10" font-weight="400" font-style="normal" 
>
<path vector-effect="none" fill-rule="nonzero" d="M16.324,13.7938 C16.211,13.7937 16.1026,13.7487 16.0228,13.6685 L10.9948,8.63056 L5.96692,13.6685 C5.79893,13.8253 5.53721,13.8207 5.37487,13.658 C5.21254,13.4954 5.20789,13.2331 5.36437,13.0648 L10.6936,7.72493 C10.86,7.55836 11.1297,7.55836 11.2961,7.72493 L16.6253,13.0648 C16.7471,13.1869 16.7835,13.3706 16.7176,13.5301 C16.6516,13.6896 16.4964,13.7937 16.324,13.7938 "/>
</g>

<g fill="#009971" fill-opacity="1" stroke="none" transform="matrix(2.27273,0,0,2.27273,0,0)"
font-family="Noto Sans" font-size="10" font-weight="400" font-style="normal" 
>
<path vector-effect="none" fill-rule="nonzero" d="M11,1 C5.47726,1 0.999999,5.47716 0.999999,11 C0.999999,16.5228 5.47726,21 11,21 C16.5228,21 21,16.5228 21,11 C21,5.47716 16.5228,1 11,1 M11,2.25 C15.8324,2.25 19.75,6.1675 19.75,11 C19.75,15.8325 15.8324,19.75 11,19.75 C6.16756,19.75 2.25,15.8325 2.25,11 C2.25,6.1675 6.16756,2.25 11,2.25 M11,2.25"/>
</g>

<g fill="none" stroke="#000000" stroke-opacity="1" stroke-width="1" stroke-linecap="square" stroke-linejoin="bevel" transform="matrix(1,0,0,1,0,0)"
font-family="Noto Sans" font-size="10" font-weight="400" font-style="normal" 
>
</g>
</g>
</svg>
